<svg version="1" xmlns="http://www.w3.org/2000/svg" width="933.333" height="933.333" viewBox="0 0 700.000000 700.000000"><path d="M0 350v350h700V0H0v350zm197.8-193.7c.5 1.8 16.3 65.4 35.2 141.3 18.8 75.8 34.6 138.3 35 138.7.7.8 9.4-33.8 55.6-220.6l15.6-62.7h50.6l35.3 142c19.4 78.1 35.6 142 35.9 142 .3 0 16-62.4 34.9-138.7 18.9-76.3 34.8-140.2 35.3-142l.9-3.3h22.4c13.6 0 22.5.4 22.5 1 0 .8-82.4 329.2-83.6 333.2-.5 1.7-2.8 1.8-28.9 1.8h-28.3l-9-36.8c-4.9-20.2-20.8-85.5-35.3-145.2-14.4-59.7-26.4-108.7-26.6-108.9-.2-.2-.5-.2-.7 0-.2.2-14.7 58.4-32.1 129.4-17.4 71-33.5 136.3-35.7 145.3l-4 16.2h-56.7l-1-3.8c-3.4-12.9-83.1-331.1-83.1-331.6 0-.3 10.1-.6 22.5-.6h22.4l.9 3.3zM590 547v12H110v-24h480v12z"/></svg>